<svg xmlns="http://www.w3.org/2000/svg" id="Layer_1" data-name="Layer 1" viewBox="0 0 512 512"><defs><style>      .cls-1 {        fill: #0d7680;        stroke-width: 0px;      }    </style></defs><path class="cls-1" d="M497.1,108.1c-7.9-25.1-23.1-46.3-43.9-61.4-20.5-14.9-45-22.7-70.9-22.7s-13.1.5-19.6,1.5c-24.3,3.8-47.7,15.8-65.7,33.7-18,18-30,41.2-33.6,65.4-.5,3.5-.9,7.1-1.3,10.6h-105.4c-31.5,0-62.9,0-94.4,0-19.4,0-34,7.2-43.6,21.4-3.4,5-5.2,10.3-7.1,15.5-.7,2.1-1.4,4.1-2.2,5.9l-.7,1.7v263.8l.6,1.6c.1.3.2.5.3.7,5.1,25.6,25.2,42.1,51.2,42.1,48.9,0,97.8,0,146.7,0,79.2,0,149.7,0,215.2-.2,7.8,0,16-1.9,23.1-5.2,19-9,29-25.6,29-48,0-63.8,0-137.8,0-210.5,0-2.2.5-3.5,1.9-5.3,25.9-33.8,32.8-71.1,20.3-110.8ZM382.2,228c-46,0-83.6-37.8-83.5-83.7,0-46,37.7-83.6,83.7-83.6,46,0,83.6,37.7,83.5,83.7,0,46-37.7,83.6-83.7,83.6ZM45.9,433.7c0-81.3,0-162.6,0-244,0-12.5,4.9-17.5,17.3-17.5h210.8c17.3,68.5,98.4,106.4,164,68.9v192.4c0,12.5-4.9,17.5-17.4,17.5H63.4c-12.5,0-17.5-4.9-17.5-17.4Z"></path><path class="cls-1" d="M488.4,110.8c-16.8-53.6-68.7-84.9-124.3-76.3-46.4,7.2-84.8,45.5-91.6,91.5-.9,6.1-1.5,12.2-2.2,18.4h-5.8c-67.4,0-134.7,0-202.1,0-14.8,0-27.6,4.9-36,17.4-3.9,5.8-5.7,13.2-8.4,19.8v260.2c.2.6.6,1.1.7,1.7,4.1,21.6,20.3,35.4,42.4,35.4,120.6,0,241.2.1,361.9-.1,6.4,0,13.4-1.6,19.2-4.3,16.5-7.8,23.8-21.8,23.8-39.8,0-70.2,0-140.3,0-210.5,0-4.3,1.1-7.5,3.8-10.9,23.7-30.9,30.5-65.4,18.8-102.5ZM438,433.6c0,12.5-4.9,17.5-17.4,17.5H63.4c-12.5,0-17.5-4.9-17.5-17.4,0-81.3,0-162.6,0-244,0-12.5,4.9-17.5,17.3-17.5h210.8c17.3,68.5,98.4,106.4,164,68.9v192.4ZM382.2,228c-46,0-83.6-37.8-83.5-83.7,0-46,37.7-83.6,83.7-83.6,46,0,83.6,37.7,83.5,83.7,0,46-37.7,83.6-83.7,83.6Z"></path><path class="cls-1" d="M222.2,381c-.1-11.9-2.8-23.3-7.9-33.9-4.5-9.3-10.7-17.5-18.9-24.8,8.7-12,13.2-26.1,12.8-40.5-.5-16.2-7.3-32.2-18.7-43.7-12.3-12.5-28.7-19.3-46.2-19.3s-29.3,5.2-40.8,14.6c-13.5,11-21.4,25.3-23.4,42.4-2.1,17,2.1,32.6,12.3,46.5-14.3,12.5-22.7,27.5-25,44.6-1.5,10.7-1.5,21.5-1.6,31.9,0,3,0,6,0,9-.1,7,2.1,13.1,6.5,17.5,4.4,4.5,10.5,6.8,17.7,6.8,18.2,0,36.4,0,54.6,0s36.4,0,54.6,0c14.4,0,24.1-9.7,24.3-24.1,0-9.9,0-18.8,0-27.1ZM118.5,348c12.6-9.3,26.5-11.1,40.8-5.1,14.1,5.8,22.9,16.7,25.1,32,.9,6.5.8,13.2,1.1,20.2h-83.6c-1.6-18.4.6-35.2,16.6-47.1ZM171.3,283.8c0,15.2-12.6,27.7-27.8,27.8-15.1,0-27.8-12.5-27.9-27.7-.1-15.3,12.7-28.1,28-28,15.2.1,27.7,12.8,27.7,27.9Z"></path><path class="cls-1" d="M213.1,381.2c-.1-10.5-2.4-20.5-7-30-5.3-11.1-13.3-20-23.6-27.5,23.9-25.1,20.1-59.3.5-79-20.2-20.4-52.5-22.3-74.7-4.1-11.5,9.4-18.4,21.6-20.2,36.4-2.2,18,3.7,33.4,16.1,46.6-1.1.9-1.9,1.7-2.7,2.3-14,10.8-23.7,24.8-26.1,42.4-1.8,13.1-1.4,26.5-1.6,39.8-.2,9.4,5.7,15.1,15,15.1,36.4,0,72.8,0,109.1,0,9.4,0,15-5.7,15.1-15,0-9,0-18,0-26.9ZM143.6,255.9c15.2.1,27.7,12.8,27.7,27.9,0,15.2-12.6,27.7-27.8,27.8-15.1,0-27.8-12.5-27.9-27.7-.1-15.3,12.7-28.1,28-28ZM102,395.1c-1.6-18.4.6-35.2,16.6-47.1,12.6-9.3,26.5-11.1,40.8-5.1,14.1,5.8,22.9,16.7,25.1,32,.9,6.5.8,13.2,1.1,20.2h-83.6Z"></path><path class="cls-1" d="M372.2,376.5c-5.2,0-10.3,0-15.5,0-5.2,0-10.3,0-15.5,0h-33.5c-7.5,0-14.9,0-22.4,0-9.8,0-17.7-5-21.6-13.7-4.1-9-2.5-18.5,4.2-24.7,1.9-1.7,8.7-7.4,16.9-7.5,18.3-.2,37.8-.3,61.3-.3s32.1,0,49.9,0c12.8,0,23,10,23.2,22.7,0,6.2-2.2,12-6.5,16.4-4.4,4.5-10.3,6.9-16.8,7-6.9,0-14.5,0-23.8,0Z"></path><path class="cls-1" d="M340.2,367.4c-18.3,0-36.5,0-54.8,0-6.2,0-10.8-2.7-13.3-8.3-2.3-5.1-1.9-10.5,2.1-14.2,2.8-2.6,7.1-5.1,10.8-5.1,37-.4,74-.3,111-.2,8,0,14,6.1,14.1,13.7.1,7.8-5.9,14-14.2,14.1-18.6.1-37.2,0-55.7,0Z"></path><path class="cls-1" d="M307.9,432.3c-8.9,0-16.1,0-22.8,0-8.2,0-15.6-4.1-19.9-10.7-4.1-6.4-4.7-14.4-1.6-21.4,4-9,12-14,22.4-14h0c8.2,0,16.4,0,24.7,0h33.6c4.9,0,9.9,0,14.8,0,4.9,0,9.9,0,14.8,0,8.5,0,15.4,0,21.8,0,8.2,0,15.6,4.1,19.9,10.7,4.1,6.4,4.7,14.4,1.6,21.4-4,9-12,14-22.4,14h-.1c-8,0-16.1,0-24.1,0h-31c-5.3,0-10.5,0-15.8,0-5.3,0-10.6,0-15.9,0Z"></path><path class="cls-1" d="M340.4,423.1c-18.4,0-36.9.1-55.3,0-10.5,0-17.3-10.1-13.2-19.3,2.7-6,7.6-8.6,14.2-8.6,19.4,0,38.7,0,58.1,0,17.2,0,34.4-.1,51.6,0,10.5.1,17.3,10.1,13.2,19.3-2.7,6-7.6,8.6-14.2,8.6-18.1,0-36.2,0-54.4,0Z"></path><path class="cls-1" d="M284.5,320.7c-6.1,0-11.9-2.5-16.2-6.9-4.3-4.4-6.7-10.2-6.6-16.3.1-12.6,10.5-22.8,23-22.8h.2c6.1,0,11.9,2.5,16.2,6.9,4.3,4.4,6.7,10.2,6.6,16.3-.1,12.6-10.5,22.8-23,22.8h-.2Z"></path><path class="cls-1" d="M284.6,311.6c-7.6,0-13.8-6.5-13.8-14,0-7.6,6.5-13.9,14-13.8,7.6,0,13.8,6.5,13.8,14,0,7.6-6.5,13.9-14,13.8Z"></path><path class="cls-1" d="M340.4,320.7c-6.1,0-11.9-2.4-16.2-6.8-4.4-4.4-6.8-10.2-6.7-16.3,0-12.7,10.4-23,23-23,12.8,0,23.1,10.4,23,23.1,0,12.7-10.4,23-23,23h0Z"></path><path class="cls-1" d="M354.3,297.7c0,7.6-6.4,13.9-13.9,13.9-7.6,0-13.9-6.4-13.9-13.9,0-7.6,6.4-13.9,13.9-13.9,7.6,0,13.9,6.4,13.9,13.9Z"></path><path class="cls-1" d="M396.2,320.7c-12.7,0-23-10.4-23-23.1,0-12.7,10.3-23,23-23,6.1,0,11.9,2.4,16.3,6.8,4.4,4.4,6.8,10.2,6.8,16.3,0,12.7-10.3,23-23,23h0Z"></path><path class="cls-1" d="M410.1,297.7c0,7.6-6.3,13.9-13.9,13.9-7.6,0-13.9-6.3-13.9-13.9,0-7.6,6.3-13.9,13.9-13.9,7.6,0,13.9,6.3,13.9,13.9Z"></path><path class="cls-1" d="M368.3,195.4c-4.3,0-10.7-1.4-17.3-7.9-8-7.9-16.4-16.3-25.7-25.7-5.2-5.2-8-11.6-7.9-18,0-5.9,2.5-11.5,7-15.9,4.4-4.2,9.9-6.6,15.7-6.6s12.6,2.8,17.7,7.8c3.5,3.5,6.9,6.9,10.4,10.6,3.8-3.8,7.5-7.5,11.3-11.3,8.9-8.9,18-18,27.1-27,5.2-5.1,11.5-8,17.9-8s11.6,2.4,16,6.9c9.5,9.6,8.9,23.5-1.4,33.8-20.6,20.7-37.5,37.6-53.2,53.2-6.7,6.6-13.2,8-17.5,8Z"></path><path class="cls-1" d="M368,152.6c1.8-1.8,3.1-2.9,4.3-4.1,13.6-13.6,27.1-27.2,40.7-40.7,6.7-6.7,15.1-7.1,21-1.2,5.8,5.9,5.4,14.2-1.4,21-17.7,17.8-35.4,35.5-53.2,53.2-7.2,7.1-14.8,7.1-22,.1-8.6-8.5-17.1-17-25.6-25.6-6.6-6.7-7-15.1-1-21,5.9-5.7,14.1-5.3,20.6,1.2,5.5,5.4,10.8,11.1,16.6,17Z"></path></svg>