<svg xmlns="http://www.w3.org/2000/svg" id="Layer_1" data-name="Layer 1" viewBox="0 0 512 512"><defs><style>      .cls-1 {        fill: #0d7680;        stroke-width: 0px;      }    </style></defs><path class="cls-1" d="M258.6,509.9c-7.7,0-15.4,0-23.1,0-16,0-27.2-10.9-28-26.9-1-20.9-13.7-35.3-33.9-38.4-2-.3-4.1-.5-6.1-.5-8.9,0-17.2,3.3-24.7,9.9-7.3,6.5-14.2,9.6-21,9.6s-14.3-3.5-21.5-10.8l-4-4c-7.9-7.9-15.8-15.8-23.6-23.7-12.5-12.5-12.9-27.3-1-40.5,10.6-11.8,13.4-24.5,8.5-38.8-4.9-14.6-15.1-23.4-30.4-26.3-1.4-.3-3-.3-4.7-.4-.8,0-1.5,0-2.3-.1-15.5-1-26.1-12-26.2-27.6,0-5.8,0-12.2,0-20.1,0-9.1,4.5-13.6,13.6-13.6,8.3,0,16.6,0,24.9,0,0,0,79.5,0,87.1,0,10.6,0,14.6,4,14.9,14.7,1.4,53.6,46.3,97.1,100.1,97.1s6.3-.1,9.4-.4c50.3-4.7,89.2-46.2,90.5-96.6.3-10.9,4.3-14.8,15.3-14.8h55.3c18.4,0,36.9,0,55.3,0,10.3,0,14.6,4.2,14.6,14.5,0,6,0,12.1,0,18.1,0,17-10.7,28-27.7,28.7-18.2.7-31.9,11.6-36.6,29.1-3.6,13.4-.8,25,8.6,35.7,12.9,14.6,12.4,28.4-1.3,42.2l-2.7,2.7c-8.3,8.3-16.6,16.6-24.9,24.9-6.5,6.5-13.5,9.8-20.6,9.8-6.8,0-13.6-3-20.2-8.9-7.9-7-16.5-10.6-25.5-10.6s-8.5.7-12.9,2.2c-14.6,4.9-23.5,15.1-26.4,30.3-.3,1.4-.3,3.1-.4,4.8,0,.9,0,1.8-.1,2.7-1.1,15.1-12.3,25.8-27.4,25.9-6.9,0-13.9,0-20.8,0ZM168.6,420.7c12.1,0,24,3.6,34.4,10.5,17.5,11.6,26.8,28.2,27.8,49.4.3,5.9,1.9,5.9,4.4,5.9,7.1,0,14.3,0,21.5,0s15.1,0,22.7,0c2.4,0,3.8-.7,4.1-4,0-1,.1-2,.2-3.1,0-1.8.1-3.8.5-5.8,4.2-24.2,18.5-41.2,41.3-49.2,7.3-2.5,14.5-3.8,21.4-3.8,14.9,0,28.8,5.8,41.4,17.2,2.3,2,3.4,2.4,3.9,2.4.8,0,2.1-.8,3.7-2.4,8.5-8.5,17.6-17.5,29.3-29.3,3.5-3.5,3.7-4.2,0-8.3-22.2-24.4-22.3-59.8-.4-84.2,11.5-12.8,26.3-19.6,43.9-20.2,5.3-.2,5.4-2,5.4-3,.2-3.6.2-7.3.1-11.2,0,0,0-.2,0-.2h-94.1c-3.5,30.5-17.3,58.3-39.3,78.6-21.9,20.2-49.9,31.9-79,32.8-1.5,0-3,0-4.4,0-29,0-54.9-9-77.2-26.9-26.7-21.4-42.2-49.9-46.2-84.6H40c0,3.1,0,6.1,0,9.1,0,4.4.8,5.2,5.4,5.4,26.2,1.3,45.4,14.6,55.3,38.3,9.9,23.6,5.8,46.5-11.7,66.2-3.5,3.9-3.4,4.5.3,8.3,9.5,9.6,19.1,19.1,28.6,28.6,2.6,2.6,3.8,2.9,4.2,2.9s1.6-.3,4.4-2.8c11.8-10.7,26.7-16.6,42.1-16.6Z"></path><path class="cls-1" d="M87,262.7c18.4,0,36.9,0,55.3,0,7.8,0,9.7,1.9,9.9,9.9,1.6,60.4,54.5,107.2,115,101.5,52.4-4.9,93.7-48.9,95-101.5.2-8.2,2-9.9,10.3-9.9,36.9,0,73.7,0,110.6,0,7.6,0,9.6,2,9.6,9.5,0,6,0,12.1,0,18.1,0,14.4-8.6,23.2-22.9,23.7-20.2.8-36,13.2-41.2,32.8-4.1,15.1-.6,28.6,9.7,40.3,11.1,12.6,10.9,23.4-1.1,35.4-9.2,9.2-18.4,18.4-27.6,27.6-10.9,10.9-22.4,11.1-34,.7-12.7-11.3-27.2-14.8-43.4-9.4-16.4,5.5-26.4,17-29.7,34.1-.5,2.6-.4,5.4-.6,8.1-.9,12.6-9.9,21.1-22.5,21.2-14.6,0-29.2,0-43.8,0-13.4,0-22.4-8.7-23-22.1-1.1-23.2-15.4-39.5-38.1-43.1-13.2-2.1-24.8,1.8-34.8,10.6-13,11.4-23.5,11.2-35.7-1-9.2-9.2-18.4-18.4-27.6-27.6-10.7-10.8-11-22.3-.8-33.6,11.5-12.8,15-27.4,9.5-43.7-5.5-16.4-17.1-26.4-34.2-29.6-2.5-.5-5.1-.4-7.6-.6-12.8-.8-21.4-9.8-21.5-22.7,0-6.7,0-13.3,0-20,0-6.3,2.3-8.6,8.6-8.6,18.9,0,37.8,0,56.7,0ZM35.1,276.3c0,5,0,9.6,0,14.1,0,7.1,2.9,10,10.1,10.3,24.2,1.2,41.6,13,50.9,35.2,9.3,22.3,5.2,42.9-10.8,61-5.2,5.8-5.1,9.5.5,15.1,9.5,9.6,19.1,19.1,28.6,28.6,5.8,5.8,9.3,5.8,15.5.2,19.9-18.1,47.9-20.4,70.3-5.6,16.2,10.7,24.7,26,25.6,45.5.3,7.3,3,10.6,9.3,10.7,14.8,0,29.5,0,44.3,0,5.4,0,8.5-3.1,9-8.5.3-2.8.1-5.7.6-8.5,3.9-22.5,16.6-37.9,38.1-45.3,21.5-7.5,40.9-2.9,57.9,12.3,5.4,4.9,9.3,4.9,14.4-.2,9.8-9.7,19.6-19.5,29.3-29.3,5.5-5.6,5.6-9.2.2-15.1-20.4-22.4-20.6-54.9-.3-77.5,10.7-11.9,24.3-18,40.3-18.6,6.3-.2,9.9-2.7,10.2-7.7.3-5.5,0-11,0-16.7h-103.5c-5.2,66.3-58.5,109.7-113.9,111.4-29.3.9-55.5-7.4-78.3-25.7-27.3-21.9-41.9-50.8-44.8-85.7H35.1Z"></path><path class="cls-1" d="M257.7,361.4c-43.2,0-81.1-30.1-90.1-71.6-1.4-6.2-1.9-12.7-2.2-18.2-.3-4.5.7-7.9,2.9-10.3,3-3.2,7.4-3.6,10.5-3.6,12.2,0,24.3,0,36.5,0,0,0,107.7,0,119.3,0,3.9,0,8.3.4,11.2,3.5,3,3,3.3,7.3,3.2,11.2-.9,45.5-37.2,84.5-82.8,88.6-2.8.3-5.7.4-8.6.4ZM189.7,281.6c6.3,33,34,56.4,67.7,56.4h0c.4,0,.8,0,1.2,0,32.7-.6,60.7-24.9,66-56.4h-135Z"></path><path class="cls-1" d="M257.4,262.7c25.7,0,51.5,0,77.2,0,7.7,0,9.6,2,9.5,9.5-.8,42.8-35.4,79.8-78.3,83.8-43.8,4-84.2-25-93.3-67.3-1.2-5.7-1.7-11.6-2.1-17.4-.4-6.3,2.1-8.6,8.4-8.6,26.2,0,52.4,0,78.6,0ZM330.4,276.6h-146.4c4.5,39.1,36.3,67,74.8,66.4,37.1-.6,68.5-29.7,71.6-66.4Z"></path><path class="cls-1" d="M397.8,245.8c-7.9,0-15.7,0-23.6,0-9.8,0-14.1-4.3-14.1-14,0-49.5,0-99.1,0-148.6,0-9.7,4.5-14.2,14-14.3,8,0,16,0,24.1,0s16,0,24.1,0c9.4,0,13.8,4.4,13.8,13.9,0,17.8,0,35.6,0,53.4v40.6c0,18.2,0,36.4,0,54.6,0,10.3-4,14.4-14.1,14.4-8,0-16.1,0-24.1,0ZM412.3,222.1V92.4h-28.6v129.7h28.6Z"></path><path class="cls-1" d="M431,157.5c0,24.6,0,49.2,0,73.8,0,7.6-1.7,9.4-9.2,9.4-15.9,0-31.8,0-47.6,0-7,0-9.2-2.1-9.2-9,0-49.5,0-99.1,0-148.6,0-7,2.2-9.3,9-9.3,16,0,32.1,0,48.1,0,6.7,0,8.8,2.2,8.8,8.9,0,24.9,0,49.8,0,74.8ZM378.7,87.4v139.7h38.6V87.4h-38.6Z"></path><path class="cls-1" d="M303.4,245.8c-8.1,0-16.2,0-24.3,0-9.7,0-13.8-4.1-13.8-13.7,0-13.9,0-27.9,0-41.8v-17.2s0-16.5,0-16.5c0-13.9,0-27.8,0-41.7,0-10.1,4.2-14.3,14.3-14.3,7.8,0,15.7,0,23.5,0s15.8,0,23.7,0c10.1,0,14.4,4.3,14.4,14.3,0,38.9,0,77.8,0,116.7,0,9.8-4.3,14.2-14,14.2-8,0-15.9,0-23.9,0ZM317.6,222.1v-98h-28.7v98h28.7Z"></path><path class="cls-1" d="M270.3,172.9c0-19.4,0-38.7,0-58.1,0-7.4,1.9-9.3,9.4-9.3,15.7,0,31.4,0,47.2,0,7.3,0,9.4,2.2,9.4,9.3,0,38.9,0,77.8,0,116.7,0,7-2.1,9.2-9,9.2-16,0-32.1,0-48.1,0-6.9,0-8.8-1.9-8.8-8.8,0-19.7,0-39.4,0-59.1ZM283.9,119.1v108h38.7v-108h-38.7Z"></path><path class="cls-1" d="M348.3,20.9c-3.5-1.2-6.1-2-8.6-3-3.8-1.6-5.2-4.5-4.1-8.5.9-3.4,4.7-5.3,8.4-4.1,8.8,2.8,17.5,5.7,26.1,8.7,4.7,1.7,6.2,5.5,3.8,10-4.4,8.1-9,16.1-13.7,24-2.1,3.4-5.3,4.7-9,2.5-3.5-2.1-4.4-5.3-2.5-9,1.1-2.2,2.4-4.4,4.2-7.7-2.3.7-3.7,1.1-5,1.6-65,24.9-129.9,49.9-194.9,74.8-1.6.6-3.2,1.3-4.9,1.8-3.8,1.1-7.3-.5-8.4-4.1-1.2-4,.4-6.9,4.1-8.4,7.6-3.1,15.4-5.9,23.1-8.9,59.2-22.7,118.4-45.5,177.5-68.2.9-.3,1.7-.7,3.7-1.6Z"></path><path class="cls-1" d="M208,245.8c-8.2,0-16.3,0-24.5,0-8.8,0-13.3-4.5-13.3-13.4,0-10.5,0-20.9,0-31.4v-12.5s0-11.8,0-11.8c0-10.2,0-20.4,0-30.6,0-9.4,4.4-13.8,13.8-13.8,8.1,0,16.3,0,24.4,0s16.2,0,24.2,0c9.3,0,13.4,4.2,13.5,13.6,0,28.6,0,57.6,0,86.3,0,9.4-4.2,13.6-13.5,13.6-8.2,0-16.4,0-24.7,0ZM222.6,222.2v-66.3h-28.6v66.3h28.6Z"></path><path class="cls-1" d="M175.3,188.5c0-14.1,0-28.3,0-42.4,0-6.7,2.1-8.8,8.8-8.8,16.2,0,32.4,0,48.6,0,6.5,0,8.5,2,8.5,8.6,0,28.8,0,57.5,0,86.3,0,6.6-2,8.6-8.5,8.6-16.4,0-32.7,0-49.1,0-6.1,0-8.3-2.3-8.3-8.4,0-14.6,0-29.2,0-43.8ZM227.5,227.2v-76.3h-38.6v76.3h38.6Z"></path><path class="cls-1" d="M113.6,245.8c-8.4,0-16.7,0-25.1,0-8.6,0-12.9-4.4-13-13,0-6.5,0-13.2,0-19.6,0-2.9,0-5.7,0-8.6,0-2.6,0-5.3,0-7.9,0-6.3,0-12.8,0-19.2,0-9.3,4.2-13.5,13.5-13.5,8.3,0,16.6,0,24.9,0s16.1,0,24.2,0c8.8,0,13.4,4.5,13.4,13.3,0,18,0,36.6,0,55.3,0,8.8-4.5,13.3-13.4,13.3-8.1,0-16.3,0-24.4,0ZM127.8,222v-34.7h-28.7v34.7h28.7Z"></path><path class="cls-1" d="M80.4,204.5c0-9,0-18.1,0-27.1,0-6.6,2.1-8.6,8.5-8.6,16.3,0,32.7,0,49,0,6,0,8.4,2.3,8.4,8.3,0,18.4,0,36.8,0,55.2,0,6-2.3,8.3-8.4,8.4-16.5,0-33,0-49.5,0-5.9,0-8-2.2-8.1-8.1,0-9.4,0-18.7,0-28.1ZM94.1,182.4v44.6h38.6v-44.6h-38.6Z"></path></svg>