<svg xmlns="http://www.w3.org/2000/svg" id="Layer_1" data-name="Layer 1" viewBox="0 0 512 512"><defs><style>      .cls-1 {        fill: #0d7680;        stroke-width: 0px;      }    </style></defs><path class="cls-1" d="M494.6,396.7c-5-5.1-12.1-7.9-20.5-8.1v-50.5c0-58.7,0-117.4,0-176.1,0-9-.8-20.8-7.5-32-11.2-18.9-28.8-28.4-52.1-28.4h-.2c-22.7,0-47.1,0-79.1,0h-76.1s-22.6,0-22.6,0h-1.7c-.3,0-.6,0-.8,0-1.9-4.5-6.7-6.6-10.8-7.9-4.2-1.3-8.5-2.2-12.6-2.6h0c-.3-.5-.8-1.4-1.2-1.9-1.9-3.5-1.8-5.1,1-8.1,2-2.1,3.3-4.5,4.5-6.6l.4-.7c4.4-7.5,3.5-15.4-2.4-21.5-6.6-6.8-12.2-12.4-17.7-17.6-3.7-3.5-7.8-5.3-12.2-5.3s-6.8,1.1-10.3,3.3l-.3.2c-3.2,2-6.5,4.1-9.7,6.5,0,0,0,0-.1,0-.6,0-1.6-.3-2-.4-3.6-.9-5.2-2.1-5.5-7.1-.2-2.4-.7-4.5-1.2-6.4l-.2-.9c-2.8-11.6-11-14.1-17.4-14.2-4,0-8.1,0-12.1,0s-8.3,0-12.3,0c-9,.1-15.4,5.3-17.5,14.3-.1.6-.3,1.2-.4,1.8-.7,3.1-1.5,6.3-1.8,9.8,0,.2,0,.3,0,.4-.4.4-1.9,1.2-2.4,1.5-1.4.8-2.5,1.1-3.5,1.1s-2-.2-4.2-2.3c-1.9-1.7-3.8-2.9-5.6-3.9-.3-.2-.7-.4-1-.6-3.5-2.1-6.8-3.2-10.2-3.2s-8.5,1.8-12.2,5.4c-6,5.8-11.9,11.6-17.4,17.3-4.5,4.6-8.5,12.3-2.2,22.4l.4.7c1.9,3.1,3.9,6.4,6.4,9.4,0,0,.1.2.2.2,0,.3-.1.9-.5,2.1-1.1,3.8-2.5,4.9-6.9,5.2-2.7.2-5.2.8-7.4,1.4l-.6.2c-8.8,2.3-13.5,8.3-13.6,17.2-.1,8-.1,16.2,0,24.4.1,9.2,5,15.2,14.1,17.4,2,.5,4,.9,5.9,1.3,2.3.5,4.5.9,6.6,1.5,3.3,6.2,2.1,7.9-.2,10-1.8,1.6-2.8,3.4-3.6,4.8-.2.3-.4.7-.6,1-5.6,8.9-4.8,16.7,2.7,23.8.9.9,1.3,1.5,1.3,3.9,0,51.1,0,103,0,153.2v36.3c-15.6.4-27,10.2-27.7,24-.6,11.4-1.1,24.6,1.3,37.2,5.9,30.8,32.1,51.6,65.1,51.6,24.8,0,49.6,0,74.4,0s87,0,104.4,0h7.1c15.2,0,30.3,0,45.5,0,17.5,0,35.1,0,52.6,0,30,0,54.6,0,77.2,0,29.7,0,55.8-20.9,62-49.4,2-9.4,2.1-18.9,2.2-28.2,0-2,0-4,0-6,.2-8.6-2.5-15.9-7.6-21.1ZM473.8,444.9c-3.3,17.1-17.9,28.5-35.7,29.5-1.4,0-2.7,0-4.1,0-118.7,0-237.3,0-356,0-19.2,0-34.8-9.9-38.9-26.7-2.5-10.1-2-20.9-2.9-31.9h6.5c47,0,94.1,0,141.1,0,7.3,0,12.4,2.4,16.3,8.5,6.5,10,16.1,14.8,27.8,15,15.3.3,30.6.3,45.8,0,12.3-.2,22.1-5.6,28.9-16.1,3.1-4.9,7.3-7.4,13.2-7.4,51.9,0,103.7,0,155.6,0,1,0,2,.2,4,.4-.5,9.7,0,19.4-1.7,28.7ZM39,118.9c4.6-1,9.2-2,13.9-3,4.5-.9,7-3.6,8.5-7.9,2.3-6.3,4.8-12.5,7.6-18.5,1.9-4.2,1.9-7.9-.6-11.7-2.6-3.8-5.1-7.7-7.9-12,2.2-1.9,4.3-3.7,6.8-5.9,3.3,2.2,7.1,4.5,10.7,7,4.4,3.1,8.6,3.1,13.5.6,5.5-2.8,11.2-5.1,17-7.1,4.7-1.6,7.7-4.3,8.5-9.2.4-2.2.9-4.4,1.3-6.6q1.6-7.8,10.7-6.6c.9,4.4,1.7,8.6,2.5,12.8,1,5,3.7,8,8.7,9.7,6,2,11.8,4.5,17.5,7.3,4.3,2.1,8.1,2.2,12.1-.4,3.8-2.6,7.7-5.1,12-7.9,2,2.2,4,4.3,6.1,6.6-2.4,3.7-4.8,7.5-7.3,11.1-2.9,4.1-2.9,8.1-.8,12.6,2.8,5.9,5.1,11.9,7.4,18,1.6,4.2,3.9,7.1,8.5,8,2.4.4,4.7,1,7.1,1.5q7.7,1.6,6.7,10.6c-4.2.9-8.5,1.9-12.8,2.7-5.1.9-8,3.9-9.6,8.8-1.9,5.8-4.3,11.6-7,17.1-2.3,4.6-2.4,8.8.6,13,2.5,3.5,4.7,7.1,7.5,11.3-2.2,1.7-4.5,3.4-7.5,5.7-2.5-1.6-6.1-3.9-9.5-6.4-4.7-3.4-9.2-3.5-14.4-.7-4.9,2.7-10.2,4.8-15.6,6.4-5.8,1.7-9.1,5-9.9,11-.5,3.9-1.5,7.7-2.3,11.5-8.5,1.9-9.1,1.6-10.7-6.5-.5-2.4-.9-4.7-1.4-7.1-.9-4.2-3.4-6.8-7.5-8.3-6.4-2.4-12.7-5-18.9-7.9-4.1-1.9-7.9-1.9-11.7.7-3.8,2.6-7.7,5.1-11.6,7.7-.7-.6-1.2-1-1.8-1.4-4.3-3-5.3-6.2-1.3-10.4,1.6-1.7,2.7-4,4.1-6,2.9-4.1,2.8-8,.6-12.5-2.8-5.7-5.2-11.6-7.2-17.5-1.6-4.8-4.3-7.6-9.2-8.5-4.4-.9-8.7-1.8-13.4-2.8v-9ZM230.2,129.1h5.5c59.9,0,119.9,0,179.8,0,19.6,0,31.3,11.7,31.3,31.4,0,76.6,0,153.2,0,229.8v5.5h-6.6c-40.4,0-80.7.2-121.1,0-14.4,0-25.7,4.7-33.5,17.2-2.6,4.2-6.7,6.3-11.7,6.3-15.3,0-30.6,0-45.8,0-5,0-9-2.1-11.7-6.4-7.8-12.4-19.1-17.2-33.5-17-36.9.3-73.8,0-110.8,0h-6.5v-184.4c5.9-3.7,11.2-6.7,16.1-10.3,2.8-2,4.9-1.4,8-.7,7.5,1.9,10.5,6.6,10.8,13.9.1,2.4.8,4.7,1.5,7,1.3,4.7,4.5,7.4,9.3,7.5,8.6.3,17.2.3,25.8,0,5.2-.1,8.6-3,9.8-8.3.4-2,1.1-4,1.2-6.1.4-7.4,3.5-12.2,11.1-14.1,3-.8,5.2-1.5,7.9.7,3.2,2.6,6.7,4.8,10.2,6.9,4.5,2.7,8.9,2.4,12.8-1.2,6.1-5.8,12-11.8,17.8-17.9,3.7-3.8,3.9-8.2,1.2-12.7-1.2-1.9-2.2-4-3.7-5.6-4.8-5.2-6-10.5-2.1-17,1.6-2.8,2.6-5.2,6.3-5.5,3.2-.2,6.4-1.2,9.6-1.8,8.3-1.8,10.6-4.6,10.8-13,0-1.2.1-2.4.2-4.4Z"></path><path class="cls-1" d="M473.7,395.9q-6.9-.1-6.9-7c0-75.6,0-151.2,0-226.8,0-9.9-1.3-19.5-6.5-28.2-10.4-17.4-26.1-24.9-46-24.9-59.3.1-118.5,0-177.8,0-3.8,0-7.3.4-9.1-4.4-.7-1.8-4-3.1-6.3-3.8-3.6-1.1-7.3-1.9-11.1-2.3-3.8-.3-5.1-2.5-6.9-5.6-3.6-6.4-2.8-11.4,1.9-16.6,1.6-1.8,2.8-3.9,4-6,2.6-4.5,2.4-8.9-1.3-12.7-5.8-5.9-11.6-11.8-17.5-17.5-4.2-4-8.5-4.3-13.6-1.1-3.2,2-6.4,4-9.4,6.3-2.7,2.1-5,1.8-8.3.9-7.6-1.9-10.5-6.6-10.9-13.7-.1-2-.7-4.1-1.2-6-1.4-5.8-4.6-8.6-10.5-8.6-8.1-.1-16.1-.1-24.2,0-5.8,0-9.2,3-10.5,8.7-.8,3.5-1.8,7-2.1,10.6-.3,4.2-2.7,5.7-6.2,7.7-6.3,3.5-11.1,2.4-16.1-2.1-1.6-1.5-3.7-2.6-5.5-3.7-5.1-3.1-9.3-2.8-13.6,1.2-5.8,5.6-11.6,11.3-17.2,17.1-4.2,4.3-4.5,8.4-1.3,13.5,2,3.2,4,6.5,6.3,9.4,2.3,2.9,2,5.3,1,8.8-2,7.3-6.5,10.1-13.5,10.5-2.2.1-4.4.8-6.5,1.3-5.5,1.5-8.1,4.6-8.2,10.3-.1,8.1-.1,16.1,0,24.2,0,5.9,2.7,9,8.6,10.5,4.3,1,8.8,1.7,13.1,2.9,1.4.4,3.1,1.5,3.8,2.7,3.8,6.7,5.6,13.5-1.3,19.6-1.2,1.1-1.9,2.8-2.9,4.3-3.7,5.9-3.5,9.8,1.6,14.7,2.8,2.7,3.5,5.4,3.5,9.1,0,63.2,0,126.5,0,189.7s0,6.9-6.9,7c-11.5.2-20.3,6.6-20.9,17.2-.6,11.8-1,23.9,1.2,35.4,5.3,27.6,29,45.7,58,45.7,59.6,0,119.2,0,178.8,0h0c60.8,0,121.6,0,182.4,0,26.1,0,49.4-18.2,54.9-43.7,2.3-10.6,1.9-21.8,2.1-32.8.3-13.5-7.9-21.5-21.2-21.8ZM219.2,146.5c8.3-1.8,10.6-4.6,10.8-13,0-1.2.1-2.4.2-4.4h5.5c59.9,0,119.9,0,179.8,0,19.6,0,31.3,11.7,31.3,31.4,0,76.6,0,153.2,0,229.8v5.5h-6.6c-40.4,0-80.7.2-121.1,0-14.4,0-25.7,4.7-33.5,17.2-2.6,4.2-6.7,6.3-11.7,6.3-15.3,0-30.6,0-45.8,0-5,0-9-2.1-11.7-6.4-7.8-12.4-19.1-17.2-33.5-17-36.9.3-73.8,0-110.8,0h-6.5v-184.4c5.9-3.7,11.2-6.7,16.1-10.3,2.8-2,4.9-1.4,8-.7,7.5,1.9,10.5,6.6,10.8,13.9.1,2.4.8,4.7,1.5,7,1.3,4.7,4.5,7.4,9.3,7.5,8.6.3,17.2.3,25.8,0,5.2-.1,8.6-3,9.8-8.3.4-2,1.1-4,1.2-6.1.4-7.4,3.5-12.2,11.1-14.1,3-.8,5.2-1.5,7.9.7,3.2,2.6,6.7,4.8,10.2,6.9,4.5,2.7,8.9,2.4,12.8-1.2,6.1-5.8,12-11.8,17.8-17.9,3.7-3.8,3.9-8.2,1.2-12.7-1.2-1.9-2.2-4-3.7-5.6-4.8-5.2-6-10.5-2.1-17,1.6-2.8,2.6-5.2,6.3-5.5,3.2-.2,6.4-1.2,9.6-1.8ZM39,128v-9c4.6-1,9.2-2,13.9-3,4.5-.9,7-3.6,8.5-7.9,2.3-6.3,4.8-12.5,7.6-18.5,1.9-4.2,1.9-7.9-.6-11.7-2.6-3.8-5.1-7.7-7.9-12,2.2-1.9,4.3-3.7,6.8-5.9,3.3,2.2,7.1,4.5,10.7,7,4.4,3.1,8.6,3.1,13.5.6,5.5-2.8,11.2-5.1,17-7.1,4.7-1.6,7.7-4.3,8.5-9.2.4-2.2.9-4.4,1.3-6.6q1.6-7.8,10.7-6.6c.9,4.4,1.7,8.6,2.5,12.8,1,5,3.7,8,8.7,9.7,6,2,11.8,4.5,17.5,7.3,4.3,2.1,8.1,2.2,12.1-.4,3.8-2.6,7.7-5.1,12-7.9,2,2.2,4,4.3,6.1,6.6-2.4,3.7-4.8,7.5-7.3,11.1-2.9,4.1-2.9,8.1-.8,12.6,2.8,5.9,5.1,11.9,7.4,18,1.6,4.2,3.9,7.1,8.5,8,2.4.4,4.7,1,7.1,1.5q7.7,1.6,6.7,10.6c-4.2.9-8.5,1.9-12.8,2.7-5.1.9-8,3.9-9.6,8.8-1.9,5.8-4.3,11.6-7,17.1-2.3,4.6-2.4,8.8.6,13,2.5,3.5,4.7,7.1,7.5,11.3-2.2,1.7-4.5,3.4-7.5,5.7-2.5-1.6-6.1-3.9-9.5-6.4-4.7-3.4-9.2-3.5-14.4-.7-4.9,2.7-10.2,4.8-15.6,6.4-5.8,1.7-9.1,5-9.9,11-.5,3.9-1.5,7.7-2.3,11.5-8.5,1.9-9.1,1.6-10.7-6.5-.5-2.4-.9-4.7-1.4-7.1-.9-4.2-3.4-6.8-7.5-8.3-6.4-2.4-12.7-5-18.9-7.9-4.1-1.9-7.9-1.9-11.7.7-3.8,2.6-7.7,5.1-11.6,7.7-.7-.6-1.2-1-1.8-1.4-4.3-3-5.3-6.2-1.3-10.4,1.6-1.7,2.7-4,4.1-6,2.9-4.1,2.8-8,.6-12.5-2.8-5.7-5.2-11.6-7.2-17.5-1.6-4.8-4.3-7.6-9.2-8.5-4.4-.9-8.7-1.8-13.4-2.8ZM473.8,444.9c-3.3,17.1-17.9,28.5-35.7,29.5-1.4,0-2.7,0-4.1,0-118.7,0-237.3,0-356,0-19.2,0-34.8-9.9-38.9-26.7-2.5-10.1-2-20.9-2.9-31.9h6.5c47,0,94.1,0,141.1,0,7.3,0,12.4,2.4,16.3,8.5,6.5,10,16.1,14.8,27.8,15,15.3.3,30.6.3,45.8,0,12.3-.2,22.1-5.6,28.9-16.1,3.1-4.9,7.3-7.4,13.2-7.4,51.9,0,103.7,0,155.6,0,1,0,2,.2,4,.4-.5,9.7,0,19.4-1.7,28.7Z"></path><path class="cls-1" d="M393.1,357.3c-3-.2-6.1,0-9.9,0v-6.5c0-39.7,0-79.3,0-119,0-9.3-3.5-12.7-12.8-12.7-11,0-22,0-33,0-10.9,0-14,3.1-14,14.2,0,39.2,0,78.3,0,117.5v6.2h-16.2v-6.4c0-29.4,0-58.7,0-88.1,0-10-3.4-13.4-13.2-13.4-11,0-22,0-33,0-10.5,0-13.6,3-13.6,13.4,0,29.5,0,59.1,0,88.6v6.1h-16.4v-6.1c0-16.7,0-33.3,0-50,0-8.3-3.6-12-11.9-12-12,0-24,0-36.1,0-8.4,0-11.8,3.5-11.8,12,0,16.8,0,33.7,0,50.5v6c-5.3,0-10-.3-14.5,0-5.7.5-9.2,4.6-9.2,9.9,0,5.4,3.5,9.2,9.2,9.9,1.7.2,3.4.2,5.1.2,75.5,0,151.1,0,226.6,0,1.5,0,3.1,0,4.6,0,5.9-.5,9.9-4.5,10-9.8,0-5.4-4.1-9.7-10.2-10.1ZM210.8,357h-19.4v-48h19.4v48ZM286.9,356.9h-19.2v-87.7h19.2v87.7ZM362.9,357h-18.9v-117.6h18.9v117.6Z"></path><path class="cls-1" d="M393.1,357.3c-3-.2-6.1,0-9.9,0v-6.5c0-39.7,0-79.3,0-119,0-9.3-3.5-12.7-12.8-12.7-11,0-22,0-33,0-10.9,0-14,3.1-14,14.2,0,39.2,0,78.3,0,117.5v6.2h-16.2v-6.4c0-29.4,0-58.7,0-88.1,0-10-3.4-13.4-13.2-13.4-11,0-22,0-33,0-10.5,0-13.6,3-13.6,13.4,0,29.5,0,59.1,0,88.6v6.1h-16.4v-6.1c0-16.7,0-33.3,0-50,0-8.3-3.6-12-11.9-12-12,0-24,0-36.1,0-8.4,0-11.8,3.5-11.8,12,0,16.8,0,33.7,0,50.5v6c-5.3,0-10-.3-14.5,0-5.7.5-9.2,4.6-9.2,9.9,0,5.4,3.5,9.2,9.2,9.9,1.7.2,3.4.2,5.1.2,75.5,0,151.1,0,226.6,0,1.5,0,3.1,0,4.6,0,5.9-.5,9.9-4.5,10-9.8,0-5.4-4.1-9.7-10.2-10.1ZM210.8,357h-19.4v-48h19.4v48ZM286.9,356.9h-19.2v-87.7h19.2v87.7ZM362.9,357h-18.9v-117.6h18.9v117.6Z"></path><path class="cls-1" d="M163.2,281c-11.3-.4-15.6-7-17.2-12.4-2.5-8.5,1.2-16.5,9.6-20.5,7.4-3.5,14.9-6.8,22.1-10.1,2.6-1.2,5.3-2.4,7.9-3.6,57.9-26.2,115.9-52.3,173.8-78.5,4.3-1.9,8-2.9,11.6-2.9,6.7,0,12,3.4,14.8,9.7,2.5,5.5,1.8,9.9.8,12.7-1.8,4.8-6.1,8.8-12.8,11.9-67,30.2-134,60.5-201,90.7-2,.9-4,1.6-5.4,2.1-.5.2-.9.3-1.3.5l-1.3.5h-1.4Z"></path><path class="cls-1" d="M163.5,273.8c-5.9-.2-9.2-2.5-10.5-7.2-1.5-4.9.6-9.4,5.7-11.8,9.9-4.7,20-9.1,29.9-13.6,57.9-26.2,115.9-52.3,173.8-78.5,8.4-3.8,14.1-2.7,16.8,3.2,2.8,6.1,0,11.1-8.4,14.9-67,30.2-134,60.5-201,90.7-2.3,1-4.8,1.8-6.3,2.3Z"></path><path class="cls-1" d="M123.8,463.4c-16.3,0-32.7,0-49,0-5.4,0-10-1.5-13.3-4.3-3.7-3.1-5.7-7.6-5.7-12.8,0-10.2,7.7-17.1,19.1-17.1,7,0,14,0,20.9,0h28.5s28.9,0,28.9,0c7,0,14,0,21,0,5.3,0,9.9,1.5,13.3,4.4,3.7,3.1,5.8,7.7,5.8,12.8,0,10.2-7.7,17.1-19.1,17.1-16.8,0-33.5,0-50.3,0Z"></path><path class="cls-1" d="M124.2,436.4c16.6,0,33.3,0,49.9,0,7.4,0,11.9,3.8,11.9,9.9,0,6.1-4.5,9.8-11.9,9.9-33.1,0-66.2,0-99.3,0-7.4,0-11.8-3.7-11.8-9.9,0-6.1,4.4-9.8,11.8-9.8,16.5,0,32.9,0,49.4,0Z"></path><path class="cls-1" d="M433.4,462.4c-3.1,0-8.8-.5-13.1-3.7-6.5-4.9-8.7-13.6-5.3-20.9,2.2-4.6,6.8-10,16.5-10s1.3,0,2,0c.6,0,1.3,0,1.9,0,9.5,0,14.1,5.2,16.3,9.5,3.6,7.1,1.7,15.9-4.5,21-4.5,3.7-11.2,4.1-13.8,4.1Z"></path><path class="cls-1" d="M433.5,435.2c5-.4,9.3.6,11.7,5.4,2.1,4.1.9,9.2-2.7,12.1-3.9,3.2-13.8,3.3-18,.2-3.6-2.7-5-7.8-3.1-11.9,2.4-5.1,6.9-6.2,12-5.8Z"></path><path class="cls-1" d="M383.9,462.3c-7.7,0-13.6-3.7-16.6-10.4-2.2-5-2-10.6.7-15.3,2.7-4.8,7.5-7.9,13.1-8.5,1.4-.1,2.8-.2,4.4-.2s2.1,0,3.3,0c10.1.5,17.1,7.6,17,17.2,0,9.5-7.1,16.5-17.2,17-.4,0-.9,0-1.3,0s-1.4,0-1.7,0c-.6,0-1.2,0-1.8,0Z"></path><path class="cls-1" d="M385.4,455c-4.8.4-9.2-1-11.5-6.1-2.7-6.1,1.3-12.9,8-13.6,2.2-.2,4.4-.2,6.6-.1,6.2.3,10.1,4.2,10.1,9.9,0,5.6-4.1,9.6-10.3,9.9-.9,0-1.7,0-2.9,0Z"></path><path class="cls-1" d="M124.5,68.3h-.1c-30.3,0-55,24.6-55.1,54.9-.1,30.4,24.4,55.3,54.7,55.5h.3c14.7,0,28.6-5.8,39.1-16.3,10.5-10.5,16.3-24.4,16.3-39,0-30.3-24.8-55.1-55.2-55.1ZM124.4,144.3h-.1c-5.5,0-10.6-2.2-14.6-6.1-4-4-6.2-9.3-6.1-14.8,0-11.2,9.5-20.7,20.7-20.7h.1c5.5,0,10.7,2.2,14.6,6.1,4,4,6.1,9.2,6.1,14.9,0,11.4-9.3,20.7-20.6,20.7Z"></path><path class="cls-1" d="M124.5,75.5c-26.5,0-47.9,21.2-48,47.7-.1,26.4,21.2,48.1,47.5,48.2,26.5.2,48.4-21.6,48.4-48,0-26.3-21.5-47.8-47.9-47.9ZM124.5,151.5c-15.4.1-28.2-12.7-28.2-28.2,0-15.3,12.7-27.9,27.9-28,15.5,0,28.2,12.6,28.1,28.2,0,15.4-12.5,27.9-27.8,28Z"></path></svg>