<svg xmlns="http://www.w3.org/2000/svg" id="Layer_1" data-name="Layer 1" viewBox="0 0 512 512"><defs><style>      .cls-1 {        fill: #0d7680;        stroke-width: 0px;      }    </style></defs><path class="cls-1" d="M363.6,6.1c19.6,25.8,39.2,51.5,58.8,77.3,1.1,1.4,2.1,2.8,3.7,4.9h-29.9v164.8h-65.1V88.8h-30.8c2-2.6,3.2-4.3,4.5-6,18.6-24.3,37.2-48.7,55.7-73,.8-1.1,1.4-2.4,2.1-3.6h1,0ZM350.3,69.4v164.4h26.7V69.3h10.4c-8.3-10.8-15.9-20.9-24-31.4-8.1,10.6-15.8,20.7-24.1,31.6h11Z"></path><path class="cls-1" d="M120.8,480.2l49.3-39.4-76.1-94-49.6,39.4-20.4-25.7,75-59.8,22.7,28c3.6-3.1,7.2-6.2,10.8-9.3,13-11.1,26.5-22.6,39.1-34.3,7.8-7.1,15.8-10.3,26.1-10.3s2.1,0,3.2,0c24.9,1.5,50.2,2.6,74.6,3.8,13.3.6,27,1.2,40.5,1.9,10,.5,18.9,5.3,25.7,13.8,31.7-12.6,63.3-25,93.9-37,4.9-1.9,9.9-2.9,14.9-2.9,19,0,34.3,13.6,37.2,33,2.2,14.7-5.2,29.4-18.8,37.5-20.2,12-40.7,24.1-60.5,35.8-8.5,5-17,10-25.5,15.1-5.9,3.5-11.8,7-17.7,10.5-19.4,11.5-39.5,23.4-59.4,34.9-3.1,1.8-7.2,2.9-11.2,2.9s-1.6,0-2.4-.1c-15.1-1.7-30.3-3.6-45.1-5.4-12.1-1.5-24.7-3-37-4.4h0c-.6,0-1.6.3-2.3.7-3.6,2.1-7.1,4.5-10.7,6.9l19.4,24-75.2,59.9-20.5-25.6h0ZM176.3,396.3c.5-.4,1.1-.7,1.6-1.1,6-4,11.6-7.8,17.5-11.5,3-1.8,6.8-2.9,10.3-2.9s1.3,0,1.9.1c13.8,1.6,27.7,3.3,41.3,4.9,13.7,1.7,27.9,3.4,41.8,5h.3c1,0,2.5-.4,3.5-1,35.3-20.7,71.2-41.9,105.8-62.3l21.9-12.9,8.7-5.1c7.1-4.2,14.2-8.4,21.3-12.6,2.6-1.5,3-3.1,2.8-5-.4-3.3-2-3.6-2.6-3.7-.5,0-1-.1-1.7-.1-1.5,0-3.2.3-4.7.9-13.5,5.2-27.2,10.6-40.5,15.8-15.9,6.2-32.3,12.7-48.6,18.9-5.6,2.2-7,3.5-8,7.8-3.8,17.1-19.3,29-37.7,29s-.8,0-1.2,0c-11-.3-22.1-1-32.8-1.6-4.7-.3-9.5-.5-14.2-.8l-23.2-1.2,1.6-31.4,5.9-.5c.4,0,.7,0,1-.1.7,0,1.5-.2,2.5-.2s.4,0,.6,0c11.5.5,22.9,1.1,34.4,1.7,2.7.1,5.3.3,7.9.4,5.5.3,11.2.7,16.8.8h.1c4.2,0,7.5-3.1,7.5-7.2s-4.3-7.1-7.3-7.2c-33.8-1.3-68.1-3-101.3-4.7l-11.6-.6h-.5c-1.2,0-1.8.2-2.8,1.1-5.6,5-11.4,10-17.1,14.9-2.4,2.1-4.8,4.1-7.2,6.2-7.4,6.4-28.1,24.3-28.1,24.3l33.9,41.9h.2Z"></path><path class="cls-1" d="M95,337.3c-16.6,13.2-33,26.2-49.5,39.4-4.1-5.1-7.9-9.9-12-15,21.5-17.2,42.8-34.2,64.4-51.3,7.7,9.5,15.2,18.7,22.9,28.2,18.7-16.2,37.5-31.8,55.5-48.3,7.3-6.7,14.5-9,24.3-8.4,38.4,2.3,76.8,3.8,115.2,5.7,8.8.4,15.8,4.9,21,11.7,2.2,2.9,4,3,7.1,1.8,31.4-12.5,62.8-24.8,94.2-37.1,19.8-7.7,39.7,3.9,42.8,24.8,1.8,11.8-4.2,23.9-15.5,30.6-28.6,17-57.3,33.9-86,50.8-25.7,15.2-51.3,30.4-77,45.3-2.6,1.5-6.3,2.2-9.4,1.9-27.4-3.1-54.8-6.6-82.1-9.8-2.1-.2-4.7.5-6.6,1.6-5.7,3.4-11.2,7.3-17.2,11.3,6.6,8.2,13.1,16.2,19.8,24.5-21.6,17.2-42.9,34.2-64.5,51.4-4.1-5.1-7.9-9.9-12-15,16.5-13.2,32.7-26.1,49.3-39.4-28.2-34.8-56.3-69.5-84.7-104.6h0ZM174.9,405.4c8.4-5.6,16.1-11,24.1-15.9,2.2-1.4,5.3-2.1,7.9-1.8,27.7,3.2,55.4,6.7,83.1,9.9,2.6.3,5.7-.5,8-1.9,42.6-25,85.2-50.1,127.7-75.2,10-5.9,20.1-11.8,30.1-17.8,4.3-2.6,6.6-6.5,6.1-11.6-.5-4.9-3.2-8.7-8-9.7-3.2-.6-7-.1-10.1,1-29.7,11.5-59.3,23.3-89,34.7-6.4,2.5-10.5,5-12.2,12.7-3.2,14.5-16.9,24-32.1,23.6-15.6-.5-31.2-1.5-46.8-2.4-5.4-.3-10.7-.6-16.4-.9.3-6.5.6-12.5.9-18.6,1.3-.1,2.2-.3,3.2-.3,11.5.5,22.9,1.1,34.4,1.7,8.3.4,16.6,1.1,24.9,1.2,8.2.1,14.6-6.2,14.6-14s-7-13.8-13.9-14c-37.6-1.4-75.2-3.4-112.8-5.2-3.3-.2-5.7.6-8.2,2.8-8,7.1-16.1,14-24.2,21-10.9,9.5-21.9,18.9-33.1,28.7,14.1,17.4,27.9,34.5,42,51.9h-.2Z"></path><path class="cls-1" d="M245.4,140.3h64.5v112.7h-64.5v-112.7ZM290.6,233.9v-74.4h-25.9v74.4h25.9Z"></path><path class="cls-1" d="M226.2,186.2v66.9h-64.5v-66.9h64.5ZM180.9,205.3v28.6h25.9v-28.6h-25.9Z"></path></svg>